<svg xmlns="http://www.w3.org/2000/svg" xmlns:xlink="http://www.w3.org/1999/xlink" width="500" zoomAndPan="magnify" viewBox="0 0 375 374.999991" height="500" preserveAspectRatio="xMidYMid meet" version="1.0"><defs><g/><clipPath id="3fe4f2c190"><path d="M 66 136 L 307 136 L 307 290 L 66 290 Z M 66 136 " clip-rule="nonzero"/></clipPath><clipPath id="b2ae0e6623"><path d="M 72.347656 16.675781 L 319.386719 31.820312 L 303.003906 299.070312 L 55.96875 283.925781 Z M 72.347656 16.675781 " clip-rule="nonzero"/></clipPath><clipPath id="bb0b175da4"><path d="M 72.347656 16.675781 L 319.386719 31.820312 L 303.003906 299.070312 L 55.96875 283.925781 Z M 72.347656 16.675781 " clip-rule="nonzero"/></clipPath><clipPath id="59bde49b52"><path d="M 72.347656 16.675781 L 319.386719 31.820312 L 303.003906 299.070312 L 55.96875 283.925781 Z M 72.347656 16.675781 " clip-rule="nonzero"/></clipPath><clipPath id="bad5fabcbd"><path d="M 115 22 L 178 22 L 178 175 L 115 175 Z M 115 22 " clip-rule="nonzero"/></clipPath><clipPath id="71fd8ec3dd"><path d="M 72.347656 16.675781 L 319.386719 31.820312 L 303.003906 299.070312 L 55.96875 283.925781 Z M 72.347656 16.675781 " clip-rule="nonzero"/></clipPath><clipPath id="674082723c"><path d="M 72.347656 16.675781 L 319.386719 31.820312 L 303.003906 299.070312 L 55.96875 283.925781 Z M 72.347656 16.675781 " clip-rule="nonzero"/></clipPath><clipPath id="5ec766e922"><path d="M 72.347656 16.675781 L 319.386719 31.820312 L 303.003906 299.070312 L 55.96875 283.925781 Z M 72.347656 16.675781 " clip-rule="nonzero"/></clipPath><clipPath id="b268c70128"><path d="M 145 57 L 207 57 L 207 176 L 145 176 Z M 145 57 " clip-rule="nonzero"/></clipPath><clipPath id="e5cacfe967"><path d="M 72.347656 16.675781 L 319.386719 31.820312 L 303.003906 299.070312 L 55.96875 283.925781 Z M 72.347656 16.675781 " clip-rule="nonzero"/></clipPath><clipPath id="a0fc7b8a06"><path d="M 72.347656 16.675781 L 319.386719 31.820312 L 303.003906 299.070312 L 55.96875 283.925781 Z M 72.347656 16.675781 " clip-rule="nonzero"/></clipPath><clipPath id="399ed89dcc"><path d="M 72.347656 16.675781 L 319.386719 31.820312 L 303.003906 299.070312 L 55.96875 283.925781 Z M 72.347656 16.675781 " clip-rule="nonzero"/></clipPath></defs><g clip-path="url(#3fe4f2c190)"><g clip-path="url(#b2ae0e6623)"><g clip-path="url(#bb0b175da4)"><g clip-path="url(#59bde49b52)"><path fill="#000000" d="M 305.691406 199.75 C 303.214844 175.605469 276.386719 160.285156 254.261719 170.0625 C 253.539062 170.351562 253.527344 170.355469 253.457031 169.519531 C 252.984375 159.144531 255.492188 161.722656 245.046875 166.382812 C 208.84375 184.238281 166.195312 188.289062 127.300781 177.421875 C 109.242188 172.472656 92.039062 164.238281 77.265625 152.6875 C 76.957031 152.441406 76.972656 152.292969 77.320312 152.050781 C 79.269531 150.714844 81.175781 149.300781 83.1875 148.0625 C 91.269531 143.132812 99.988281 139.324219 109.027344 136.527344 C 109.316406 136.425781 109.710938 136.460938 109.785156 136.027344 C 96.804688 136.375 83.105469 140.832031 71.8125 147.222656 C 71.074219 147.667969 70.589844 148.199219 70.433594 149.070312 C 61.816406 188.507812 69.882812 227.527344 104.292969 251.8125 C 144.078125 279.925781 204.953125 274.160156 234.910156 234.398438 C 243.992188 222.523438 249.652344 208.332031 251.761719 193.558594 C 251.90625 192.453125 252.332031 191.476562 252.925781 190.550781 C 256.273438 185.4375 262.320312 182.742188 268.316406 182.554688 C 280.730469 181.9375 290.566406 193.265625 290.386719 205.242188 C 290.417969 223.804688 277.070312 239.460938 262.761719 249.890625 C 243.214844 263.761719 219.03125 269.355469 195.800781 273.664062 C 152.007812 281.585938 106.421875 273.707031 66.753906 254.023438 C 91.992188 275.109375 125.4375 288.0625 158.757812 289.324219 C 201.050781 290.335938 255.144531 281.597656 285.898438 250.359375 C 298.859375 237.097656 307.945312 218.617188 305.691406 199.75 Z M 305.691406 199.75 " fill-opacity="1" fill-rule="nonzero"/></g></g></g></g><g clip-path="url(#bad5fabcbd)"><g clip-path="url(#71fd8ec3dd)"><g clip-path="url(#674082723c)"><g clip-path="url(#5ec766e922)"><path fill="#000000" d="M 115.839844 137.753906 C 116.984375 154.859375 130.710938 171.195312 147.542969 174.691406 C 131.429688 159.105469 126.046875 134.328125 145.164062 118.632812 C 154.53125 110.945312 165.664062 104.828125 171.984375 94.082031 C 187.289062 68.257812 167.007812 36.242188 143.757812 22.960938 C 140.144531 20.941406 145.203125 25.535156 145.722656 26.214844 C 154.835938 36.855469 162.164062 49.960938 161.324219 64.449219 C 158.972656 95.015625 113.421875 103.246094 115.839844 137.753906 Z M 115.839844 137.753906 " fill-opacity="1" fill-rule="nonzero"/></g></g></g></g><g clip-path="url(#b268c70128)"><g clip-path="url(#e5cacfe967)"><g clip-path="url(#a0fc7b8a06)"><g clip-path="url(#399ed89dcc)"><path fill="#000000" d="M 163.347656 122.617188 C 157.582031 126.613281 152.542969 131.644531 149.144531 137.828125 C 142.539062 150.125 144.132812 168.074219 157.316406 175.28125 C 157.738281 175.53125 157.914062 175.382812 157.863281 174.882812 C 157.621094 172.382812 157.589844 169.878906 157.710938 167.375 C 158.027344 150.300781 170.128906 142.757812 183.492188 135.277344 C 198.449219 127.148438 208.378906 111.140625 205.582031 93.871094 C 204.3125 80.578125 198.738281 67.726562 190.570312 57.226562 C 189.835938 56.828125 190.515625 58.507812 190.550781 58.78125 C 193.96875 70.402344 195.175781 83.292969 191.152344 94.914062 C 186.53125 107.945312 174.21875 115.265625 163.347656 122.617188 Z M 163.347656 122.617188 " fill-opacity="1" fill-rule="nonzero"/></g></g></g></g><g fill="#490101" fill-opacity="1"><g transform="translate(33.827573, 297.345319)"><g><path d="M 27.3125 -5.921875 C 28.425781 -7.554688 28.78125 -9.25 28.375 -11 C 27.976562 -12.75 26.945312 -14.191406 25.28125 -15.328125 C 23.613281 -16.453125 21.890625 -16.882812 20.109375 -16.625 C 18.328125 -16.363281 16.878906 -15.414062 15.765625 -13.78125 C 14.660156 -12.15625 14.304688 -10.453125 14.703125 -8.671875 C 15.097656 -6.890625 16.128906 -5.4375 17.796875 -4.3125 C 19.460938 -3.175781 21.1875 -2.753906 22.96875 -3.046875 C 24.757812 -3.335938 26.207031 -4.296875 27.3125 -5.921875 Z M 27.3125 -5.921875 "/></g></g></g><g fill="#490101" fill-opacity="1"><g transform="translate(56.820636, 313.514407)"><g><path d="M 37.75 0.71875 C 38.882812 1.25 39.710938 2.023438 40.234375 3.046875 C 40.753906 4.066406 40.78125 5.082031 40.3125 6.09375 C 40.070312 6.601562 39.644531 7.1875 39.03125 7.84375 C 38.414062 8.5 37.769531 9.050781 37.09375 9.5 C 34.59375 11.207031 32.007812 12.128906 29.34375 12.265625 C 26.6875 12.410156 23.78125 11.75 20.625 10.28125 C 17 8.601562 14.25 6.265625 12.375 3.265625 C 10.507812 0.273438 9.613281 -3.160156 9.6875 -7.046875 C 9.769531 -10.941406 10.804688 -15.03125 12.796875 -19.3125 C 14.765625 -23.550781 17.171875 -26.898438 20.015625 -29.359375 C 22.867188 -31.816406 26.007812 -33.253906 29.4375 -33.671875 C 32.875 -34.097656 36.457031 -33.441406 40.1875 -31.703125 C 42.925781 -30.441406 45.195312 -28.851562 47 -26.9375 C 48.800781 -25.03125 49.976562 -23.015625 50.53125 -20.890625 C 51.082031 -18.765625 50.914062 -16.75 50.03125 -14.84375 C 49.238281 -13.132812 48.070312 -11.976562 46.53125 -11.375 C 44.988281 -10.78125 43.40625 -10.859375 41.78125 -11.609375 C 40.101562 -12.390625 38.96875 -13.46875 38.375 -14.84375 C 37.789062 -16.226562 37.851562 -17.679688 38.5625 -19.203125 C 38.945312 -20.015625 39.460938 -20.710938 40.109375 -21.296875 C 39.515625 -22.242188 38.398438 -23.097656 36.765625 -23.859375 C 33.773438 -25.242188 31.144531 -25.222656 28.875 -23.796875 C 26.601562 -22.367188 24.445312 -19.453125 22.40625 -15.046875 C 20.269531 -10.460938 19.390625 -6.691406 19.765625 -3.734375 C 20.140625 -0.773438 21.847656 1.40625 24.890625 2.8125 C 26.316406 3.476562 27.660156 3.71875 28.921875 3.53125 C 30.191406 3.351562 31.492188 2.738281 32.828125 1.6875 C 33.816406 0.882812 34.660156 0.421875 35.359375 0.296875 C 36.066406 0.171875 36.863281 0.3125 37.75 0.71875 Z M 37.75 0.71875 "/></g></g></g><g fill="#490101" fill-opacity="1"><g transform="translate(99.711106, 333.189888)"><g><path d="M 23.0625 5.671875 C 18.914062 4.765625 15.546875 3.109375 12.953125 0.703125 C 10.359375 -1.703125 8.632812 -4.726562 7.78125 -8.375 C 6.925781 -12.03125 6.992188 -16.144531 7.984375 -20.71875 C 9.015625 -25.457031 10.738281 -29.394531 13.15625 -32.53125 C 15.582031 -35.675781 18.554688 -37.835938 22.078125 -39.015625 C 25.609375 -40.203125 29.488281 -40.335938 33.71875 -39.421875 C 37.832031 -38.523438 41.179688 -36.875 43.765625 -34.46875 C 46.359375 -32.0625 48.082031 -29.03125 48.9375 -25.375 C 49.789062 -21.726562 49.722656 -17.617188 48.734375 -13.046875 C 47.703125 -8.316406 45.96875 -4.390625 43.53125 -1.265625 C 41.101562 1.847656 38.128906 4.007812 34.609375 5.21875 C 31.097656 6.425781 27.25 6.578125 23.0625 5.671875 Z M 24.953125 -2.6875 C 31.785156 -1.195312 36.269531 -5.375 38.40625 -15.21875 C 39.425781 -19.914062 39.378906 -23.5625 38.265625 -26.15625 C 37.160156 -28.75 34.992188 -30.394531 31.765625 -31.09375 C 24.890625 -32.582031 20.390625 -28.421875 18.265625 -18.609375 C 17.234375 -13.867188 17.269531 -10.207031 18.375 -7.625 C 19.488281 -5.039062 21.679688 -3.394531 24.953125 -2.6875 Z M 24.953125 -2.6875 "/></g></g></g><g fill="#490101" fill-opacity="1"><g transform="translate(151.704001, 343.526793)"><g><path d="M 34.21875 -45.15625 C 35.332031 -45.164062 36.242188 -44.816406 36.953125 -44.109375 C 37.660156 -43.398438 38.015625 -42.488281 38.015625 -41.375 L 38.046875 -33.515625 C 38.046875 -32.578125 37.820312 -31.828125 37.375 -31.265625 C 36.925781 -30.710938 36.210938 -30.429688 35.234375 -30.421875 L 32.40625 -30.421875 C 30.507812 -30.410156 29.554688 -31.429688 29.546875 -33.484375 L 29.53125 -36.578125 L 17.5 -36.546875 L 17.53125 -26.953125 L 26.9375 -26.984375 C 27.832031 -26.984375 28.582031 -26.679688 29.1875 -26.078125 C 29.789062 -25.484375 30.09375 -24.738281 30.09375 -23.84375 L 30.09375 -21.65625 C 30.101562 -20.75 29.804688 -19.992188 29.203125 -19.390625 C 28.609375 -18.796875 27.863281 -18.5 26.96875 -18.5 L 17.5625 -18.46875 L 17.59375 -8.625 L 20.8125 -8.625 C 21.71875 -8.632812 22.453125 -8.398438 23.015625 -7.921875 C 23.578125 -7.453125 23.859375 -6.722656 23.859375 -5.734375 L 23.859375 -2.90625 C 23.867188 -1.914062 23.59375 -1.195312 23.03125 -0.75 C 22.476562 -0.300781 21.75 -0.0703125 20.84375 -0.0625 L 6.375 -0.015625 C 5.425781 -0.015625 4.671875 -0.238281 4.109375 -0.6875 C 3.554688 -1.132812 3.273438 -1.851562 3.265625 -2.84375 L 3.265625 -5.671875 C 3.265625 -6.660156 3.539062 -7.390625 4.09375 -7.859375 C 4.644531 -8.335938 5.394531 -8.578125 6.34375 -8.578125 L 7.296875 -8.59375 L 7.203125 -36.515625 L 6.25 -36.5 C 5.300781 -36.5 4.546875 -36.734375 3.984375 -37.203125 C 3.429688 -37.671875 3.15625 -38.398438 3.15625 -39.390625 L 3.140625 -42.21875 C 3.140625 -43.207031 3.414062 -43.925781 3.96875 -44.375 C 4.53125 -44.832031 5.285156 -45.0625 6.234375 -45.0625 Z M 34.21875 -45.15625 "/></g></g></g><g fill="#490101" fill-opacity="1"><g transform="translate(196.78952, 342.939123)"><g><path d="M 24.609375 -51.015625 C 25.703125 -51.242188 26.664062 -51.082031 27.5 -50.53125 C 28.34375 -49.976562 28.875 -49.15625 29.09375 -48.0625 L 30.671875 -40.375 C 30.859375 -39.445312 30.785156 -38.664062 30.453125 -38.03125 C 30.128906 -37.40625 29.488281 -36.992188 28.53125 -36.796875 L 25.765625 -36.21875 C 23.898438 -35.84375 22.757812 -36.660156 22.34375 -38.671875 L 21.71875 -41.6875 L 9.9375 -39.265625 L 11.875 -29.875 L 21.09375 -31.765625 C 21.96875 -31.941406 22.757812 -31.796875 23.46875 -31.328125 C 24.175781 -30.859375 24.617188 -30.1875 24.796875 -29.3125 L 25.234375 -27.171875 C 25.421875 -26.285156 25.28125 -25.488281 24.8125 -24.78125 C 24.34375 -24.070312 23.671875 -23.628906 22.796875 -23.453125 L 13.578125 -21.5625 L 15.546875 -11.921875 L 18.703125 -12.578125 C 19.585938 -12.753906 20.347656 -12.664062 20.984375 -12.3125 C 21.628906 -11.96875 22.050781 -11.3125 22.25 -10.34375 L 22.828125 -7.5625 C 23.023438 -6.59375 22.894531 -5.832031 22.4375 -5.28125 C 21.976562 -4.726562 21.304688 -4.363281 20.421875 -4.1875 L 6.25 -1.28125 C 5.320312 -1.09375 4.539062 -1.160156 3.90625 -1.484375 C 3.269531 -1.804688 2.851562 -2.453125 2.65625 -3.421875 L 2.078125 -6.203125 C 1.878906 -7.171875 2.003906 -7.941406 2.453125 -8.515625 C 2.910156 -9.097656 3.601562 -9.484375 4.53125 -9.671875 L 5.453125 -9.859375 L -0.15625 -37.203125 L -1.078125 -37.015625 C -2.003906 -36.828125 -2.785156 -36.90625 -3.421875 -37.25 C -4.066406 -37.601562 -4.488281 -38.265625 -4.6875 -39.234375 L -5.25 -42 C -5.445312 -42.96875 -5.316406 -43.726562 -4.859375 -44.28125 C -4.410156 -44.84375 -3.722656 -45.21875 -2.796875 -45.40625 Z M 24.609375 -51.015625 "/></g></g></g><g fill="#490101" fill-opacity="1"><g transform="translate(241.008057, 333.510258)"><g><path d="M 26.59375 -28.578125 C 27.5 -28.960938 28.269531 -28.988281 28.90625 -28.65625 C 29.539062 -28.332031 30.046875 -27.734375 30.421875 -26.859375 L 33.96875 -18.59375 C 34.394531 -17.601562 34.414062 -16.648438 34.03125 -15.734375 C 33.65625 -14.828125 32.953125 -14.15625 31.921875 -13.71875 L 5.859375 -2.515625 C 4.984375 -2.140625 4.203125 -2.046875 3.515625 -2.234375 C 2.828125 -2.429688 2.289062 -2.984375 1.90625 -3.890625 L 0.78125 -6.5 C 0.394531 -7.40625 0.363281 -8.1875 0.6875 -8.84375 C 1.007812 -9.5 1.609375 -10.015625 2.484375 -10.390625 L 3.359375 -10.765625 L -7.671875 -36.40625 L -8.546875 -36.03125 C -9.421875 -35.65625 -10.203125 -35.570312 -10.890625 -35.78125 C -11.585938 -36 -12.132812 -36.5625 -12.53125 -37.46875 L -13.640625 -40.078125 C -14.023438 -40.984375 -14.050781 -41.753906 -13.71875 -42.390625 C -13.394531 -43.023438 -12.796875 -43.53125 -11.921875 -43.90625 L 13.78125 -54.953125 C 14.8125 -55.390625 15.789062 -55.421875 16.71875 -55.046875 C 17.65625 -54.679688 18.34375 -53.988281 18.78125 -52.96875 L 21.890625 -45.75 C 22.253906 -44.882812 22.335938 -44.101562 22.140625 -43.40625 C 21.941406 -42.71875 21.390625 -42.179688 20.484375 -41.796875 L 17.890625 -40.6875 C 16.148438 -39.9375 14.878906 -40.503906 14.078125 -42.390625 L 12.84375 -45.21875 L 1.78125 -40.46875 L 5.3125 -32.265625 L 13.96875 -35.984375 C 14.789062 -36.335938 15.59375 -36.351562 16.375 -36.03125 C 17.164062 -35.707031 17.738281 -35.132812 18.09375 -34.3125 L 18.953125 -32.3125 C 19.316406 -31.476562 19.34375 -30.664062 19.03125 -29.875 C 18.71875 -29.09375 18.148438 -28.523438 17.328125 -28.171875 L 8.671875 -24.453125 L 12.8125 -14.828125 L 24.171875 -19.703125 L 22.546875 -23.46875 C 22.171875 -24.34375 22.09375 -25.128906 22.3125 -25.828125 C 22.53125 -26.523438 23.085938 -27.066406 23.984375 -27.453125 Z M 26.59375 -28.578125 "/></g></g></g><g fill="#490101" fill-opacity="1"><g transform="translate(284.285586, 314.392507)"><g><path d="M 20.09375 -33.46875 C 20.90625 -34.039062 21.65625 -34.226562 22.34375 -34.03125 C 23.03125 -33.832031 23.648438 -33.347656 24.203125 -32.578125 L 29.390625 -25.21875 C 30.003906 -24.34375 30.21875 -23.414062 30.03125 -22.4375 C 29.851562 -21.46875 29.3125 -20.664062 28.40625 -20.03125 L 5.203125 -3.671875 C 4.429688 -3.128906 3.6875 -2.878906 2.96875 -2.921875 C 2.257812 -2.960938 1.625 -3.390625 1.0625 -4.203125 L -0.578125 -6.515625 C -1.140625 -7.316406 -1.332031 -8.070312 -1.15625 -8.78125 C -0.976562 -9.5 -0.503906 -10.128906 0.265625 -10.671875 L 1.046875 -11.21875 L -15.046875 -34.03125 L -15.828125 -33.484375 C -16.597656 -32.941406 -17.34375 -32.703125 -18.0625 -32.765625 C -18.789062 -32.828125 -19.4375 -33.257812 -20 -34.0625 L -21.640625 -36.375 C -22.203125 -37.1875 -22.382812 -37.9375 -22.1875 -38.625 C -22 -39.320312 -21.519531 -39.941406 -20.75 -40.484375 L 2.125 -56.609375 C 3.039062 -57.253906 3.988281 -57.488281 4.96875 -57.3125 C 5.957031 -57.144531 6.773438 -56.601562 7.421875 -55.6875 L 11.9375 -49.265625 C 12.476562 -48.503906 12.722656 -47.765625 12.671875 -47.046875 C 12.628906 -46.328125 12.207031 -45.6875 11.40625 -45.125 L 9.09375 -43.5 C 7.539062 -42.40625 6.171875 -42.695312 4.984375 -44.375 L 3.203125 -46.90625 L -6.625 -39.96875 L -1.46875 -32.671875 L 6.21875 -38.09375 C 6.945312 -38.613281 7.726562 -38.796875 8.5625 -38.640625 C 9.40625 -38.492188 10.082031 -38.054688 10.59375 -37.328125 L 11.859375 -35.53125 C 12.378906 -34.789062 12.566406 -34.003906 12.421875 -33.171875 C 12.273438 -32.335938 11.835938 -31.660156 11.109375 -31.140625 L 3.421875 -25.71875 L 9.46875 -17.15625 L 19.5625 -24.28125 L 17.203125 -27.640625 C 16.648438 -28.410156 16.410156 -29.160156 16.484375 -29.890625 C 16.554688 -30.617188 16.988281 -31.269531 17.78125 -31.84375 Z M 20.09375 -33.46875 "/></g></g></g><g fill="#490101" fill-opacity="1"><g transform="translate(321.457847, 286.904576)"><g><path d="M -0.515625 -27.9375 C -1.910156 -29.34375 -3.5 -30.019531 -5.28125 -29.96875 C -7.070312 -29.925781 -8.6875 -29.195312 -10.125 -27.78125 C -11.5625 -26.363281 -12.320312 -24.753906 -12.40625 -22.953125 C -12.5 -21.148438 -11.847656 -19.546875 -10.453125 -18.140625 C -9.078125 -16.734375 -7.476562 -16.050781 -5.65625 -16.09375 C -3.84375 -16.144531 -2.21875 -16.878906 -0.78125 -18.296875 C 0.65625 -19.710938 1.398438 -21.320312 1.453125 -23.125 C 1.515625 -24.925781 0.859375 -26.53125 -0.515625 -27.9375 Z M -0.515625 -27.9375 "/></g></g></g></svg>